<?xml version="1.0" standalone="no"?>
<!DOCTYPE svg PUBLIC "-//W3C//DTD SVG 20010904//EN" "http://www.w3.org/TR/2001/REC-SVG-20010904/DTD/svg10.dtd">
<!-- Created using Krita: https://krita.org -->
<svg xmlns="http://www.w3.org/2000/svg" 
    xmlns:xlink="http://www.w3.org/1999/xlink"
    xmlns:krita="http://krita.org/namespaces/svg/krita"
    xmlns:sodipodi="http://sodipodi.sourceforge.net/DTD/sodipodi-0.dtd"
    width="240pt"
    height="240pt"
    viewBox="0 0 240 240">
<defs/>
<path id="shape0" transform="matrix(0.827787934186472 0 0 0.802450229709035 87.2778443583151 112.995893185363)" fill="none" stroke="#25750b" stroke-width="12" stroke-linecap="square" stroke-linejoin="miter" stroke-miterlimit="2" d="M0 0L28.8 0" sodipodi:nodetypes="cc"/><path id="shape1" transform="matrix(0.827787934186472 0 0 0.802450229709035 123.038283115171 147.661743108794)" fill="none" stroke="#25750b" stroke-width="12" stroke-linecap="square" stroke-linejoin="miter" stroke-miterlimit="2" d="M0 0L9.6 0" sodipodi:nodetypes="cc"/><path id="shape2" transform="matrix(0.827787934186472 0 0 0.802450229709035 87.2778443583151 51.3677155437094)" fill="none" stroke="#25750b" stroke-width="12" stroke-linecap="square" stroke-linejoin="miter" stroke-miterlimit="2" d="M0 0L19.2 0" sodipodi:nodetypes="cc"/><path id="shape3" transform="matrix(0.827787934186472 0 0 0.802450229709035 99.1979906106003 182.327593032224)" fill="none" stroke="#25750b" stroke-width="24" stroke-linecap="square" stroke-linejoin="miter" stroke-miterlimit="2" d="M0 0L19.2 0" sodipodi:nodetypes="cc"/><path id="shape4" transform="matrix(0.827787934186472 0 0 0.802450229709035 97.2112995685528 78.330043261933)" fill="none" stroke="#25750b" stroke-width="24" stroke-linecap="square" stroke-linejoin="miter" stroke-miterlimit="2" d="M0 0L45.6 0" sodipodi:nodetypes="cc"/><path id="shape5" transform="matrix(0.827787934186472 0 0 0.802450229709035 59.4641697696497 143.80998200619)" fill="none" stroke="#25750b" stroke-width="12" stroke-linecap="square" stroke-linejoin="miter" stroke-miterlimit="2" d="M0 0L4.8 0" sodipodi:nodetypes="cc"/><path id="shape6" transform="matrix(0.827787934186472 0 0 0.802450229709035 63.4375518537448 109.14413208276)" fill="none" stroke="#25750b" stroke-width="12" stroke-linecap="square" stroke-linejoin="miter" stroke-miterlimit="2" d="M0 0L4.8 0" sodipodi:nodetypes="cc"/><path id="shape01" transform="matrix(1.15890310786106 0 0 1.12343032159265 79.5913367168474 57.8117130446984)" fill="none" stroke="#29a600" stroke-width="22.2456" stroke-linecap="square" stroke-linejoin="bevel" d="M75.5802 20.495C68.9396 11.9789 62.7998 6.39469 57.1609 3.74249C47.6182 -0.745821 32.6974 -2.37832 20.1823 5.63397C12.3016 10.6792 8.42664 15.5365 4.63599 24.1471C0.115671 34.4151 -0.0023233 37.6353 3.13277e-05 48.6974C0.00140755 55.163 2.67025 73.29 11.0595 83.7526C16.2852 90.2697 21.7217 94.8677 29.9215 98.5385C38.6694 102.455 55.1958 100.978 62.8206 96.4593C67.3011 93.8038 70.361 91.4922 72 89.5246" sodipodi:nodetypes="csssssssc"/><rect id="shape02" transform="matrix(0.827787934186472 0 0 0.802450229709035 59.0668315612402 67.3525241195134)" fill="none" stroke-opacity="0" stroke="#000000" stroke-width="0" stroke-linecap="square" stroke-linejoin="bevel" width="84" height="24.96"/><path id="shape11" transform="matrix(0.827787934186472 0 0 0.802450229709035 59.4641697696497 89.8853265697431)" fill="none" stroke="#5cf22b" stroke-width="24" stroke-linecap="square" stroke-linejoin="miter" stroke-miterlimit="2" d="M0 0L43.2 0" sodipodi:nodetypes="cc"/><path id="shape21" transform="matrix(-0.827787934186472 0 0 0.802450229709035 115.152521004959 147.661743108794)" fill="none" stroke="#5cf22b" stroke-width="24" stroke-linecap="square" stroke-linejoin="miter" stroke-miterlimit="2" d="M0 0L9.67369 0" sodipodi:nodetypes="cc"/><path id="shape31" transform="matrix(0.827787934186472 0 0 0.802450229709035 123.038283115171 51.3677155437094)" fill="none" stroke="#5cf22b" stroke-width="24" stroke-linecap="square" stroke-linejoin="miter" stroke-miterlimit="2" d="M0 0L4.8 0" sodipodi:nodetypes="cc"/><path id="shape41" transform="matrix(0.827787934186472 0 0 0.802450229709035 119.064901031076 159.217026416604)" fill="none" stroke="#5cf22b" stroke-width="24" stroke-linecap="square" stroke-linejoin="miter" stroke-miterlimit="2" d="M0 0L33.6 0" sodipodi:nodetypes="cc"/><path id="shape51" transform="matrix(0.827787934186472 0 0 0.802450229709035 59.4641697696497 128.402937595777)" fill="none" stroke="#5cf22b" stroke-width="12" stroke-linecap="square" stroke-linejoin="miter" stroke-miterlimit="2" d="M0 0L28.8 0" sodipodi:nodetypes="cc"/><path id="shape61" transform="matrix(0.827787934186472 0 0 0.802450229709035 166.745486040216 62.9229988515195)" fill="none" stroke="#5cf22b" stroke-width="12" stroke-linecap="square" stroke-linejoin="miter" stroke-miterlimit="2" d="M0 0L4.8 0" sodipodi:nodetypes="cc"/><path id="shape7" transform="matrix(0.827787934186472 0 0 0.802450229709035 71.3843160219349 66.7747599541229)" fill="none" stroke="#5cf22b" stroke-width="12" stroke-linecap="square" stroke-linejoin="miter" stroke-miterlimit="2" d="M0 0L33.6 0" sodipodi:nodetypes="cc"/><path id="shape8" transform="matrix(0.827787934186472 0 0 0.802450229709035 75.3576981060299 159.217026416604)" fill="none" stroke="#5cf22b" stroke-width="12" stroke-linecap="square" stroke-linejoin="miter" stroke-miterlimit="2" d="M0 0L4.8 0" sodipodi:nodetypes="cc"/><path id="shape9" transform="matrix(0.827787934186472 0 0 0.802450229709035 123.038283115171 74.4782821593296)" fill="none" stroke="#5cf22b" stroke-width="12" stroke-linecap="square" stroke-linejoin="miter" stroke-miterlimit="2" d="M0 0L9.6 0" sodipodi:nodetypes="cc"/><path id="shape10" transform="matrix(0.827787934186472 0 0 0.802450229709035 130.985047283361 39.8124322358993)" fill="none" stroke="#5cf22b" stroke-width="12" stroke-linecap="square" stroke-linejoin="miter" stroke-miterlimit="2" d="M0 0L9.6 0" sodipodi:nodetypes="cc"/>
</svg>